<?xml version="1.0" encoding="utf-8"?>
<!-- Generator: Adobe Illustrator 25.4.1, SVG Export Plug-In . SVG Version: 6.00 Build 0)  -->
<svg version="1.1" id="One_Color" xmlns="http://www.w3.org/2000/svg" xmlns:xlink="http://www.w3.org/1999/xlink" x="0px" y="0px"
	 viewBox="0 0 512 512" enable-background="new 0 0 512 512" xml:space="preserve">
<path fill="#298FB7" d="M72,372v8c0,6.64-5.36,12-12,12H40H20c-6.64,0-12-5.36-12-12v-8c0-6.64,5.36-12,12-12h20h20
	C66.64,360,72,365.36,72,372z"/>
<path fill="#298FB7" d="M72,292v8c0,6.64-5.36,12-12,12H40H20c-6.64,0-12-5.36-12-12v-8c0-6.64,5.36-12,12-12h20h20
	C66.64,280,72,285.36,72,292z"/>
<path fill="#298FB7" d="M72,212v8c0,6.64-5.36,12-12,12H40H20c-6.64,0-12-5.36-12-12v-8c0-6.64,5.36-12,12-12h20h20
	C66.64,200,72,205.36,72,212z"/>
<path fill="#298FB7" d="M72,132v8c0,6.64-5.36,12-12,12H40H20c-6.64,0-12-5.36-12-12v-8c0-6.64,5.36-12,12-12h20h20
	C66.64,120,72,125.36,72,132z"/>
<path fill="#298FB7" d="M72,52v8c0,6.64-5.36,12-12,12H40H20c-6.64,0-12-5.36-12-12v-8c0-6.64,5.36-12,12-12h20h20
	C66.64,40,72,45.36,72,52z"/>
<rect x="136" y="40" fill="#298FB7" width="176" height="128"/>
<path fill="#298FB7" d="M72,452v8c0,6.64-5.36,12-12,12H40H20c-6.64,0-12-5.36-12-12v-8c0-6.64,5.36-12,12-12h20h20
	C66.64,440,72,445.36,72,452z"/>
<polygon fill="#298FB7" points="504,56 504,80 480,80 456,80 456,56 "/>
<polygon fill="#298FB7" points="504,440 488.96,480 471.04,480 456,440 480,440 "/>
<rect x="336" y="8" fill="#298FB7" width="32" height="496"/>
<path fill="#114E6D" d="M136,176h176c4.418,0,8-3.578,8-8V40c0-4.422-3.582-8-8-8H136c-4.418,0-8,3.578-8,8v128
	C128,172.422,131.582,176,136,176z M144,48h160v112H144V48z"/>
<path fill="#114E6D" d="M280,64H160c-4.418,0-8,3.578-8,8s3.582,8,8,8h120c4.418,0,8-3.578,8-8S284.418,64,280,64z"/>
<path fill="#114E6D" d="M280,96H160c-4.418,0-8,3.578-8,8s3.582,8,8,8h120c4.418,0,8-3.578,8-8S284.418,96,280,96z"/>
<path fill="#114E6D" d="M280,128H160c-4.418,0-8,3.578-8,8s3.582,8,8,8h120c4.418,0,8-3.578,8-8S284.418,128,280,128z"/>
<path fill="#114E6D" d="M32,480v24c0,4.422,3.582,8,8,8h344c17.645,0,32-14.352,32-32V32c0-17.648-14.355-32-32-32H40
	c-4.418,0-8,3.578-8,8v24H20C8.973,32,0,40.969,0,52v8c0,11.031,8.973,20,20,20h12v32H20c-11.027,0-20,8.969-20,20v8
	c0,11.031,8.973,20,20,20h12v32H20c-11.027,0-20,8.969-20,20v8c0,11.031,8.973,20,20,20h12v32H20c-11.027,0-20,8.969-20,20v8
	c0,11.031,8.973,20,20,20h12v32H20c-11.027,0-20,8.969-20,20v8c0,11.031,8.973,20,20,20h12v32H20c-11.027,0-20,8.969-20,20v8
	c0,11.031,8.973,20,20,20H32z M400,32v448c0,8.82-7.176,16-16,16h-8V16h8C392.824,16,400,23.18,400,32z M16,60v-8
	c0-2.203,1.793-4,4-4h40c2.207,0,4,1.797,4,4v8c0,2.203-1.793,4-4,4H20C17.793,64,16,62.203,16,60z M16,140v-8c0-2.203,1.793-4,4-4
	h40c2.207,0,4,1.797,4,4v8c0,2.203-1.793,4-4,4H20C17.793,144,16,142.203,16,140z M16,220v-8c0-2.203,1.793-4,4-4h40
	c2.207,0,4,1.797,4,4v8c0,2.203-1.793,4-4,4H20C17.793,224,16,222.203,16,220z M16,300v-8c0-2.203,1.793-4,4-4h40
	c2.207,0,4,1.797,4,4v8c0,2.203-1.793,4-4,4H20C17.793,304,16,302.203,16,300z M16,380v-8c0-2.203,1.793-4,4-4h40
	c2.207,0,4,1.797,4,4v8c0,2.203-1.793,4-4,4H20C17.793,384,16,382.203,16,380z M48,400h12c11.027,0,20-8.969,20-20v-8
	c0-11.031-8.973-20-20-20H48v-32h12c11.027,0,20-8.969,20-20v-8c0-11.031-8.973-20-20-20H48v-32h12c11.027,0,20-8.969,20-20v-8
	c0-11.031-8.973-20-20-20H48v-32h12c11.027,0,20-8.969,20-20v-8c0-11.031-8.973-20-20-20H48V80h12c11.027,0,20-8.969,20-20v-8
	c0-11.031-8.973-20-20-20H48V16h312v480h-16V40c0-4.422-3.582-8-8-8s-8,3.578-8,8v456H48v-16h12c11.027,0,20-8.969,20-20v-8
	c0-11.031-8.973-20-20-20H48V400z M16,460v-8c0-2.203,1.793-4,4-4h40c2.207,0,4,1.797,4,4v8c0,2.203-1.793,4-4,4H20
	C17.793,464,16,462.203,16,460z"/>
<path fill="#114E6D" d="M480,0c-17.645,0-32,14.352-32,32v408c0,0.961,0.172,1.914,0.512,2.812l23.992,63.984
	C473.672,509.93,476.66,512,480,512s6.328-2.07,7.496-5.203l23.992-63.984c0.34-0.898,0.512-1.852,0.512-2.812V32
	c0-8.531-3.332-16.57-9.383-22.617C496.566,3.328,488.535,0,480,0z M483.431,472h-6.862l-9.017-24h24.896L483.431,472z M464,72v-8
	h32v8H464z M464,432V88h8v328c0,4.422,3.582,8,8,8s8-3.578,8-8V88h8v344H464z M480,16c4.262,0,8.277,1.664,11.305,4.695
	S496,27.742,496,32v16h-32V32C464,23.18,471.176,16,480,16z"/>
</svg>
